<svg width="62" height="150" viewBox="0 0 62 150" fill="none" xmlns="http://www.w3.org/2000/svg">
<path d="M11.9426 16.8127C18.4307 16.825 24.6062 14.0295 28.8799 9.14795C29.7893 8.10913 29.6855 6.52954 28.6479 5.62012C19.301 -2.56836 5.08594 -1.62842 -3.10254 7.71729C-3.16235 7.78809 -3.18311 7.87476 -3.2356 7.948C-7.71069 12.572 -11.429 17.8748 -14.25 23.6597C-18.2136 9.67896 -30.9675 0.0219727 -45.5 0C-46.8806 0 -48 1.11938 -48 2.5C-47.9768 19.2957 -35.1704 33.313 -18.4456 34.8499C-19.3782 38.3777 -19.9922 41.9824 -20.2803 45.6201C-26.1628 35.9338 -36.6682 30.0146 -48 30C-49.3806 30 -50.5 31.1194 -50.5 32.5C-50.4744 49.4641 -37.4128 63.5583 -20.5 64.873V72.5H-44.25C-49.0828 72.5 -53 76.4172 -53 81.25V113.75C-52.9817 126.617 -46.1433 138.511 -35.0325 145H-55.5V150H22V145H1.53003C12.6421 138.511 19.4805 126.617 19.5 113.75V81.25C19.5 76.4172 15.5828 72.5 10.75 72.5H-15.5V54.873C1.41284 53.5583 14.4744 39.4641 14.5 22.5C14.5 21.1194 13.3806 20 12 20C2.98999 20.0049 -5.61108 23.7634 -11.7354 30.3723C-9.23657 23.8892 -5.55981 17.9236 -0.889404 12.7771C2.87402 15.4041 7.35278 16.8127 11.9426 16.8127ZM-42.8755 5.12451C-29.77 6.40015 -19.4001 16.77 -18.1245 29.8755C-31.23 28.5999 -41.5999 18.23 -42.8755 5.12451ZM14.5 81.25V97.5H-25.5V102.5H14.5V113.75C14.3999 130.205 1.55566 143.763 -14.8701 144.753C-31.2959 145.742 -45.6746 133.824 -47.7498 117.5H-8V112.5H-48V87.5H-13V82.5H-48V81.25C-48 79.1785 -46.3215 77.5 -44.25 77.5H10.75C12.8215 77.5 14.5 79.1785 14.5 81.25ZM12.6677 5.08301C16.3628 4.82666 20.0432 5.76294 23.167 7.75269C17.3247 12.6135 9.0166 13.1628 2.58472 9.11255C5.42896 6.72607 8.96289 5.31372 12.6677 5.08301ZM-45.3755 35.1245C-32.27 36.4001 -21.9001 46.77 -20.6245 59.8755C-33.73 58.5999 -44.0999 48.23 -45.3755 35.1245ZM9.37549 25.1245C8.09985 38.23 -2.27002 48.5999 -15.3755 49.8755C-14.0999 36.77 -3.72998 26.4001 9.37549 25.1245Z" fill="#D2E603"/>
</svg>
