<svg width="182" height="482" viewBox="0 0 182 482" fill="none" xmlns="http://www.w3.org/2000/svg">
<g clip-path="url(#clip0)">
<path d="M217.405 453.795C217.405 453.795 204.968 360.043 97.6639 299.793" stroke="#D8C8A8" stroke-width="0.7808" stroke-miterlimit="10" stroke-linecap="round" stroke-linejoin="round"/>
<path d="M176.074 366.221C176.074 366.221 182.055 254.549 152.937 189.47C123.143 122.545 124.054 55.9286 152.213 38.53" stroke="#D8C8A8" stroke-width="0.7808" stroke-miterlimit="10" stroke-linecap="round" stroke-linejoin="round"/>
<path d="M136.949 142.415C136.949 142.415 120.987 89.9874 71.7845 70.7332" stroke="#D8C8A8" stroke-width="0.7808" stroke-miterlimit="10" stroke-linecap="round" stroke-linejoin="round"/>
<path d="M172.557 268.721C172.557 268.721 166.806 217.819 201.966 190.66" stroke="#D8C8A8" stroke-width="0.7808" stroke-miterlimit="10" stroke-linecap="round" stroke-linejoin="round"/>
<path d="M87.8658 278.943C103.038 288.866 109.38 305.644 108.902 306.432C108.424 307.219 90.4093 307.605 75.4481 297.63C60.276 287.707 53.9338 270.928 54.2008 270.192C54.7304 269.616 72.6937 269.02 87.8658 278.943Z" fill="#FCF0DA" fill-opacity="0.15"/>
<path d="M157.123 173.691C152.717 191.312 159.481 207.988 160.217 208.254C161.164 208.47 174.601 196.686 179.007 179.066C183.414 161.445 176.861 144.718 175.914 144.502C175.178 144.235 161.53 156.07 157.123 173.691Z" fill="#FCF0DA" fill-opacity="0.15"/>
<path d="M126.761 157.426C142.73 166.037 150.708 182.191 150.179 182.768C149.701 183.556 131.888 185.68 115.919 177.07C99.9504 168.459 92.0239 152.516 92.5019 151.728C92.9798 150.94 110.793 148.816 126.761 157.426Z" fill="#FCF0DA" fill-opacity="0.15"/>
<path d="M159.273 239.111C171.109 252.757 173.021 270.62 172.281 271.248C171.54 271.876 154.18 267.63 142.345 253.985C130.51 240.339 128.597 222.476 129.338 221.848C129.708 221.534 147.227 225.517 159.273 239.111Z" fill="#FCF0DA" fill-opacity="0.15"/>
<path d="M180.515 299.411C173.164 315.964 176.816 333.625 177.552 333.892C178.551 334.318 193.713 325.019 201.064 308.466C208.415 291.912 204.763 274.252 204.027 273.985C203.502 273.666 187.866 282.858 180.515 299.411Z" fill="#FCF0DA" fill-opacity="0.15"/>
<path d="M138.229 361.4C153.652 363.214 167.277 355.855 167.334 355.171C167.338 354.276 155.907 344.108 140.483 342.294C125.06 340.48 111.435 347.839 111.379 348.523C111.323 349.207 122.806 359.586 138.229 361.4Z" fill="#FCF0DA" fill-opacity="0.15"/>
<path d="M136.299 114.183C132.121 128.171 136.845 141.993 137.371 142.311C138.107 142.578 149.528 133.524 153.706 119.535C157.884 105.547 153.371 91.6742 152.635 91.4072C152.161 91.2996 140.688 100.143 136.299 114.183Z" fill="#FCF0DA" fill-opacity="0.15"/>
<path d="M153.831 20.474C141.651 33.7382 139.349 51.7381 139.926 52.2676C140.765 52.9563 158.165 49.1449 170.293 35.6698C182.473 22.4057 184.826 4.61671 184.198 3.87631C183.884 3.50611 166.221 7.15829 153.831 20.474Z" fill="#FCF0DA" fill-opacity="0.15"/>
<path d="M58.8561 54.4488C75.7852 60.5886 86.1396 75.491 85.8726 76.227C85.4463 77.2255 68.2528 81.8807 51.2721 75.5299C34.1322 69.4418 24.0403 54.6986 24.2557 53.7517C24.5743 53.2267 41.9271 48.309 58.8561 54.4488Z" fill="#FCF0DA" fill-opacity="0.15"/>
<path d="M88.7187 96.9908C106.832 97.9227 120.786 109.262 120.782 110.157C120.777 111.052 105.455 120.614 87.5011 119.42C69.5467 118.226 55.4337 107.149 55.4381 106.254C55.2833 105.621 70.605 96.059 88.7187 96.9908Z" fill="#FCF0DA" fill-opacity="0.15"/>
<path d="M110.711 69.9243C115.121 83.3754 110.84 96.9418 110.207 97.0967C109.364 97.3032 98.3453 88.8226 93.9353 75.3714C89.5254 61.9202 93.8064 48.3539 94.4392 48.199C95.0721 48.0441 106.512 56.4215 110.711 69.9243Z" fill="#FCF0DA" fill-opacity="0.15"/>
<path d="M199.389 232.199C188.338 240.94 174.219 241.713 173.904 241.343C173.328 240.813 177.398 227.298 188.449 218.558C199.501 209.817 213.568 208.833 213.934 209.414C214.511 209.944 210.652 223.407 199.389 232.199Z" fill="#FCF0DA" fill-opacity="0.15"/>
<path d="M142.656 297.276C146.79 313.254 140.972 328.761 140.339 328.916C139.496 329.123 127.066 318.529 122.932 302.551C118.798 286.573 124.616 271.066 125.249 270.911C125.881 270.756 138.522 281.299 142.656 297.276Z" fill="#FCF0DA" fill-opacity="0.15"/>
</g>
<defs>
<clipPath id="clip0">
<rect width="205" height="446" fill="white" transform="translate(0 48.7345) rotate(-13.7525)"/>
</clipPath>
</defs>
</svg>
