<svg width="185" height="551" viewBox="0 0 185 551" fill="none" xmlns="http://www.w3.org/2000/svg">
<g clip-path="url(#clip0)">
<path d="M-39.3882 529.265C-39.3882 529.265 -37.2479 429.604 7.2606 355.209C65.9282 256.936 89.9511 93.3855 79.5163 52.2376" stroke="#B89490" stroke-opacity="0.5" stroke-width="1.0549" stroke-miterlimit="10"/>
<path d="M70.8221 174.46C70.8221 174.46 85.3553 150.934 109.073 147.974" stroke="#B89490" stroke-opacity="0.5" stroke-width="1.0549" stroke-miterlimit="10"/>
<path d="M75.3966 148.897C75.3966 148.897 63.0179 143.726 66.1523 123.743C69.3079 104.488 58.2752 98.0385 53.7575 97.8807" stroke="#B89490" stroke-opacity="0.5" stroke-width="1.0549" stroke-miterlimit="10"/>
<path d="M36.5426 295.473C36.5426 295.473 47.6093 293.033 53.1217 274.728C59.6303 253.115 69.7672 253.762 75.9533 258.752" stroke="#B89490" stroke-opacity="0.5" stroke-width="1.0549" stroke-miterlimit="10"/>
<path d="M54.7546 240.582C54.7546 240.582 43.2992 237.132 44.4655 222.088" stroke="#B89490" stroke-opacity="0.5" stroke-width="1.0549" stroke-miterlimit="10"/>
<path d="M-30.1888 457.227C-30.1888 457.227 -9.4857 450.713 -5.62067 428.303C-1.75564 405.894 31.2358 341.021 46.5984 323.518" stroke="#B89490" stroke-opacity="0.5" stroke-width="1.0549" stroke-miterlimit="10"/>
<path d="M5.35224 397.451C5.35224 397.451 16.6555 383.055 30.1277 378.212" stroke="#B89490" stroke-opacity="0.5" stroke-width="1.0549" stroke-miterlimit="10"/>
<path d="M-8.36286 386.345C-8.36286 386.345 -4.08804 370.554 -11.7822 356.21" stroke="#B89490" stroke-opacity="0.5" stroke-width="1.0549" stroke-miterlimit="10"/>
<path d="M19.1924 332.343C19.1924 332.343 5.0934 328.097 14.435 313.832C23.004 300.537 23.4253 282.382 23.4253 282.382" stroke="#B89490" stroke-opacity="0.5" stroke-width="1.0549" stroke-miterlimit="10"/>
<path d="M108.769 46.8548C98.4002 70.9136 97.0088 73.1405 82.9907 74.211C68.9727 75.2815 63.6808 60.9392 62.2943 43.2027C60.8414 25.6867 63.924 11.4609 77.942 10.3904C91.9601 9.31989 115.799 30.6907 108.769 46.8548Z" fill="#F8E8D2" fill-opacity="0.5"/>
<path d="M87.9147 148.818C87.9147 148.818 108.709 107.694 128.725 120.216C148.521 132.672 130.662 154.475 106.238 158.185C81.8807 161.674 87.9147 148.818 87.9147 148.818Z" fill="#F8E8D2" fill-opacity="0.5"/>
<path d="M71.2873 107.489C72.9331 96.4391 71.2988 82.7171 55.5071 75.3156C26.7211 61.5956 16.2893 83.4704 25.3084 95.8082C31.3795 104.372 46.9574 106.898 57.1753 112.861C61.91 115.49 70.0189 116.489 71.2873 107.489Z" fill="#F8E8D2" fill-opacity="0.5"/>
<path d="M64.1981 265.074C66.2763 276.524 82.3708 304.463 107.128 282.091C131.886 259.72 98.8367 237.019 71.0776 246.219C65.1685 248.288 63.257 260.22 64.1981 265.074Z" fill="#F8E8D2" fill-opacity="0.5"/>
<path d="M45.9946 232.171C52.5404 231.977 64.3053 218.441 53.1917 206.676C38.0285 190.804 35.6976 170.618 17.0857 178.965C-4.61357 188.787 6.65376 233.553 45.9946 232.171Z" fill="#F8E8D2" fill-opacity="0.5"/>
<path d="M38.2497 336.879C38.2497 336.879 68.6506 346.034 73.6949 331.677C78.7391 317.321 74.1988 301.28 58.5723 302.107C42.659 303.088 23.2679 317.213 38.2497 336.879Z" fill="#F8E8D2" fill-opacity="0.5"/>
<path d="M18.8131 384.667C18.8131 384.667 22.7606 382.728 39.0383 389.314C52.2982 394.75 63.42 384.148 54.4462 370.862C45.1857 357.73 25.8838 354.804 18.8131 384.667Z" fill="#F8E8D2" fill-opacity="0.5"/>
<path d="M22.6817 294.426C22.6817 294.426 30.6399 292.733 31.7269 287.528C32.8802 282.103 44.1025 262.39 18.0168 256.459C-8.06899 250.528 5.73989 290.046 22.6817 294.426Z" fill="#F8E8D2" fill-opacity="0.5"/>
<path d="M-9.03659 363.05C-9.03659 363.05 24.277 337.001 -4.0473 324.142C-23.077 315.525 -39.6238 344.939 -9.03659 363.05Z" fill="#F8E8D2" fill-opacity="0.5"/>
</g>
<defs>
<clipPath id="clip0">
<rect width="143.103" height="532.049" fill="white" transform="translate(47.4326) rotate(16.7592)"/>
</clipPath>
</defs>
</svg>
