<svg width="295" height="250" viewBox="0 0 295 250" fill="none" xmlns="http://www.w3.org/2000/svg">
<g opacity="0.16" clip-path="url(#clip0)">
<path d="M237.061 301.839C237.061 301.839 228.807 213.85 237.061 185.97C245.315 158.091 270.886 110.39 269.267 83.6382" stroke="#3E5335" stroke-width="1.2573" stroke-miterlimit="10"/>
<path d="M223.79 125.216C223.79 125.216 237.709 164.053 235.443 192.739" stroke="#3E5335" stroke-width="1.2573" stroke-miterlimit="10"/>
<path d="M283.995 0C284.804 0.483458 263.441 24.1729 253.731 52.8581C244.182 82.349 266.192 101.687 266.678 101.365C267.002 102.01 294.191 90.8901 295 59.9488C295.324 29.6521 283.024 0.161153 283.995 0Z" fill="#708368"/>
<path d="M208.901 45.7673C209.872 45.9285 198.705 75.7417 200.162 105.877C202.104 136.819 229.617 146.81 229.94 146.327C230.426 146.81 251.627 126.666 241.107 97.4973C230.264 69.1345 208.254 46.2508 208.901 45.7673Z" fill="#708368"/>
</g>
<g opacity="0.16" clip-path="url(#clip1)">
<path d="M37.0613 385.839C37.0613 385.839 28.8075 297.85 37.0613 269.97C45.3152 242.091 70.8859 194.39 69.2675 167.638" stroke="#3E5335" stroke-width="1.2573" stroke-miterlimit="10"/>
<path d="M23.7905 209.216C23.7905 209.216 37.7087 248.053 35.4429 276.739" stroke="#3E5335" stroke-width="1.2573" stroke-miterlimit="10"/>
<path d="M83.9949 84C84.8041 84.4835 63.4412 108.173 53.7308 136.858C44.1823 166.349 66.1925 185.687 66.678 185.365C67.0017 186.01 94.1908 174.89 95 143.949C95.3237 113.652 83.0238 84.1612 83.9949 84Z" fill="#708368"/>
<path d="M8.90119 129.767C9.87223 129.928 -1.29472 159.742 0.161838 189.877C2.10392 220.819 29.6167 230.81 29.9404 230.327C30.4259 230.81 51.6269 210.666 41.1073 181.497C30.264 153.134 8.25383 130.251 8.90119 129.767Z" fill="#708368"/>
</g>
<defs>
<clipPath id="clip0">
<rect width="95" height="302" fill="white" transform="translate(200)"/>
</clipPath>
<clipPath id="clip1">
<rect width="95" height="302" fill="white" transform="translate(0 84)"/>
</clipPath>
</defs>
</svg>
