<svg width="320" height="574" viewBox="0 0 320 574" fill="none" xmlns="http://www.w3.org/2000/svg">
<g clip-path="url(#clip0)">
<path d="M355.405 545.795C355.405 545.795 342.968 452.043 235.664 391.793" stroke="#D8C8A8" stroke-width="0.7808" stroke-miterlimit="10" stroke-linecap="round" stroke-linejoin="round"/>
<path d="M314.074 458.221C314.074 458.221 320.055 346.549 290.937 281.47C261.143 214.545 262.054 147.929 290.213 130.53" stroke="#D8C8A8" stroke-width="0.7808" stroke-miterlimit="10" stroke-linecap="round" stroke-linejoin="round"/>
<path d="M274.949 234.415C274.949 234.415 258.987 181.987 209.784 162.733" stroke="#D8C8A8" stroke-width="0.7808" stroke-miterlimit="10" stroke-linecap="round" stroke-linejoin="round"/>
<path d="M310.557 360.721C310.557 360.721 304.806 309.819 339.966 282.66" stroke="#D8C8A8" stroke-width="0.7808" stroke-miterlimit="10" stroke-linecap="round" stroke-linejoin="round"/>
<path d="M225.866 370.943C241.038 380.866 247.38 397.644 246.902 398.432C246.424 399.219 228.409 399.605 213.448 389.63C198.276 379.707 191.934 362.928 192.201 362.192C192.73 361.616 210.694 361.02 225.866 370.943Z" fill="#FCF0DA" fill-opacity="0.15"/>
<path d="M295.123 265.691C290.717 283.312 297.481 299.988 298.217 300.254C299.164 300.47 312.601 288.686 317.007 271.066C321.414 253.445 314.861 236.718 313.914 236.502C313.178 236.235 299.53 248.07 295.123 265.691Z" fill="#FCF0DA" fill-opacity="0.15"/>
<path d="M264.761 249.426C280.73 258.037 288.708 274.191 288.179 274.768C287.701 275.556 269.888 277.68 253.919 269.07C237.95 260.459 230.024 244.516 230.502 243.728C230.98 242.94 248.793 240.816 264.761 249.426Z" fill="#FCF0DA" fill-opacity="0.15"/>
<path d="M297.273 331.111C309.109 344.757 311.021 362.62 310.281 363.248C309.54 363.876 292.18 359.63 280.345 345.985C268.51 332.339 266.597 314.476 267.338 313.848C267.708 313.534 285.227 317.517 297.273 331.111Z" fill="#FCF0DA" fill-opacity="0.15"/>
<path d="M318.515 391.411C311.164 407.964 314.816 425.625 315.552 425.892C316.551 426.318 331.713 417.019 339.064 400.466C346.415 383.912 342.763 366.252 342.027 365.985C341.502 365.666 325.866 374.858 318.515 391.411Z" fill="#FCF0DA" fill-opacity="0.15"/>
<path d="M276.229 453.4C291.652 455.214 305.277 447.855 305.334 447.171C305.338 446.276 293.907 436.108 278.483 434.294C263.06 432.48 249.435 439.839 249.379 440.523C249.323 441.207 260.806 451.586 276.229 453.4Z" fill="#FCF0DA" fill-opacity="0.15"/>
<path d="M274.299 206.183C270.121 220.171 274.845 233.993 275.371 234.311C276.107 234.578 287.528 225.524 291.706 211.535C295.884 197.547 291.371 183.674 290.635 183.407C290.161 183.3 278.688 192.143 274.299 206.183Z" fill="#FCF0DA" fill-opacity="0.15"/>
<path d="M291.831 112.474C279.651 125.738 277.349 143.738 277.926 144.268C278.765 144.956 296.165 141.145 308.293 127.67C320.473 114.406 322.826 96.6167 322.198 95.8763C321.884 95.5061 304.221 99.1583 291.831 112.474Z" fill="#FCF0DA" fill-opacity="0.15"/>
<path d="M196.856 146.449C213.785 152.589 224.14 167.491 223.873 168.227C223.446 169.226 206.253 173.881 189.272 167.53C172.132 161.442 162.04 146.699 162.256 145.752C162.574 145.227 179.927 140.309 196.856 146.449Z" fill="#FCF0DA" fill-opacity="0.15"/>
<path d="M226.719 188.991C244.832 189.923 258.786 201.262 258.782 202.157C258.777 203.052 243.455 212.614 225.501 211.42C207.547 210.226 193.434 199.149 193.438 198.254C193.283 197.621 208.605 188.059 226.719 188.991Z" fill="#FCF0DA" fill-opacity="0.15"/>
<path d="M248.711 161.924C253.121 175.375 248.84 188.942 248.207 189.097C247.364 189.303 236.345 180.823 231.935 167.371C227.525 153.92 231.806 140.354 232.439 140.199C233.072 140.044 244.512 148.421 248.711 161.924Z" fill="#FCF0DA" fill-opacity="0.15"/>
<path d="M337.389 324.199C326.338 332.94 312.219 333.713 311.904 333.343C311.328 332.813 315.398 319.298 326.449 310.558C337.501 301.817 351.568 300.833 351.934 301.414C352.511 301.944 348.652 315.407 337.389 324.199Z" fill="#FCF0DA" fill-opacity="0.15"/>
<path d="M280.656 389.276C284.79 405.254 278.972 420.761 278.339 420.916C277.496 421.123 265.066 410.529 260.932 394.551C256.798 378.573 262.616 363.066 263.249 362.911C263.881 362.756 276.522 373.299 280.656 389.276Z" fill="#FCF0DA" fill-opacity="0.15"/>
</g>
<g clip-path="url(#clip1)">
<path d="M1.07749 256C1.07749 256 -4.77171 147.536 59.1079 68.1862" stroke="#3E5335" stroke-opacity="0.2" stroke-width="1.2573" stroke-miterlimit="10"/>
<path d="M10.7749 170.013C10.7749 170.013 34.9414 131.093 83.2744 102.581" stroke="#3E5335" stroke-opacity="0.2" stroke-width="1.2573" stroke-miterlimit="10"/>
<path d="M30.0157 114.951C30.0157 114.951 36.7885 87.9482 26.7832 66.5268" stroke="#3E5335" stroke-opacity="0.2" stroke-width="1.2573" stroke-miterlimit="10"/>
<path d="M111.597 2.55638e-05C112.059 0.754298 83.5822 11.3141 62.8021 30.7743C41.7141 51.1397 51.7194 76.7849 52.3351 76.6341C52.3351 77.2375 80.0419 79.802 94.511 54.4585C108.057 29.4166 110.673 -0.150829 111.597 2.55638e-05Z" fill="#EDEFD3" fill-opacity="0.2"/>
<path d="M6.15708 1.81027C6.92671 1.81027 0.769642 24.891 4.15603 47.3683C8.0042 70.2982 29.7079 75.729 29.8618 75.2764C30.3236 75.4272 44.7927 58.8333 34.6335 37.8645C24.1665 17.65 5.6953 2.26284 6.15708 1.81027Z" fill="#EDEFD3" fill-opacity="0.2"/>
<path d="M147 73.9187C146.538 73.4661 133.608 93.6806 114.675 106.654C94.9728 119.628 76.1937 108.012 76.3476 107.559C75.8859 107.408 78.1948 85.6853 100.822 78.5952C122.834 72.1084 147 74.673 147 73.9187Z" fill="#EDEFD3" fill-opacity="0.2"/>
</g>
<defs>
<clipPath id="clip0">
<rect width="205" height="446" fill="white" transform="translate(138 140.734) rotate(-13.7525)"/>
</clipPath>
<clipPath id="clip1">
<rect width="147" height="256" fill="white" transform="matrix(-1 0 0 1 147 0)"/>
</clipPath>
</defs>
</svg>
