<svg width="76" height="150" viewBox="0 0 76 150" fill="none" xmlns="http://www.w3.org/2000/svg">
<path d="M99.9426 16.8127C106.431 16.825 112.606 14.0295 116.88 9.14795C117.789 8.10913 117.686 6.52954 116.648 5.62012C107.301 -2.56836 93.0859 -1.62842 84.8975 7.71729C84.8377 7.78809 84.8169 7.87476 84.7644 7.948C80.2893 12.572 76.571 17.8748 73.75 23.6597C69.7864 9.67896 57.0325 0.0219727 42.5 0C41.1194 0 40 1.11938 40 2.5C40.0232 19.2957 52.8296 33.313 69.5544 34.8499C68.6218 38.3777 68.0078 41.9824 67.7197 45.6201C61.8372 35.9338 51.3318 30.0146 40 30C38.6194 30 37.5 31.1194 37.5 32.5C37.5256 49.4641 50.5872 63.5583 67.5 64.873V72.5H43.75C38.9172 72.5 35 76.4172 35 81.25V113.75C35.0183 126.617 41.8567 138.511 52.9675 145H32.5V150H110V145H89.53C100.642 138.511 107.48 126.617 107.5 113.75V81.25C107.5 76.4172 103.583 72.5 98.75 72.5H72.5V54.873C89.4128 53.5583 102.474 39.4641 102.5 22.5C102.5 21.1194 101.381 20 100 20C90.99 20.0049 82.3889 23.7634 76.2647 30.3723C78.7634 23.8892 82.4402 17.9236 87.1106 12.7771C90.874 15.4041 95.3528 16.8127 99.9426 16.8127ZM45.1245 5.12451C58.23 6.40015 68.5999 16.77 69.8755 29.8755C56.77 28.5999 46.4002 18.23 45.1245 5.12451ZM102.5 81.25V97.5H62.5V102.5H102.5V113.75C102.4 130.205 89.5557 143.763 73.1299 144.753C56.7041 145.742 42.3254 133.824 40.2502 117.5H80V112.5H40V87.5H75V82.5H40V81.25C40 79.1785 41.6785 77.5 43.75 77.5H98.75C100.822 77.5 102.5 79.1785 102.5 81.25ZM100.668 5.08301C104.363 4.82666 108.043 5.76294 111.167 7.75269C105.325 12.6135 97.0166 13.1628 90.5847 9.11255C93.429 6.72607 96.9629 5.31372 100.668 5.08301ZM42.6245 35.1245C55.73 36.4001 66.0999 46.77 67.3755 59.8755C54.27 58.5999 43.9002 48.23 42.6245 35.1245ZM97.3755 25.1245C96.0999 38.23 85.73 48.5999 72.6245 49.8755C73.9002 36.77 84.27 26.4001 97.3755 25.1245Z" fill="#D2E603"/>
</svg>
