<svg width="147" height="256" viewBox="0 0 147 256" fill="none" xmlns="http://www.w3.org/2000/svg">
<g clip-path="url(#clip0)">
<path d="M1.07749 256C1.07749 256 -4.77171 147.536 59.1079 68.1862" stroke="#3E5335" stroke-opacity="0.2" stroke-width="1.2573" stroke-miterlimit="10"/>
<path d="M10.7749 170.013C10.7749 170.013 34.9414 131.093 83.2744 102.581" stroke="#3E5335" stroke-opacity="0.2" stroke-width="1.2573" stroke-miterlimit="10"/>
<path d="M30.0157 114.951C30.0157 114.951 36.7885 87.9482 26.7832 66.5268" stroke="#3E5335" stroke-opacity="0.2" stroke-width="1.2573" stroke-miterlimit="10"/>
<path d="M111.597 2.55638e-05C112.059 0.754298 83.5822 11.3141 62.8021 30.7743C41.7141 51.1397 51.7194 76.7849 52.3351 76.6341C52.3351 77.2375 80.0419 79.802 94.511 54.4585C108.057 29.4166 110.673 -0.150829 111.597 2.55638e-05Z" fill="#EDEFD3" fill-opacity="0.2"/>
<path d="M6.15708 1.81027C6.92671 1.81027 0.769642 24.891 4.15603 47.3683C8.0042 70.2982 29.7079 75.729 29.8618 75.2764C30.3236 75.4272 44.7927 58.8333 34.6335 37.8645C24.1665 17.65 5.6953 2.26284 6.15708 1.81027Z" fill="#EDEFD3" fill-opacity="0.2"/>
<path d="M147 73.9187C146.538 73.4661 133.608 93.6806 114.675 106.654C94.9728 119.628 76.1937 108.012 76.3476 107.559C75.8859 107.408 78.1948 85.6853 100.822 78.5952C122.834 72.1084 147 74.673 147 73.9187Z" fill="#EDEFD3" fill-opacity="0.2"/>
</g>
<defs>
<clipPath id="clip0">
<rect width="147" height="256" fill="white" transform="matrix(-1 0 0 1 147 0)"/>
</clipPath>
</defs>
</svg>
