<svg width="80" height="80" viewBox="0 0 80 80" fill="none" xmlns="http://www.w3.org/2000/svg">
<g clip-path="url(#clip0)">
<path d="M17.2584 50.214C17.5258 49.9691 17.933 49.9462 18.2273 50.1577C21.7936 52.7218 23.803 60.6555 21.8889 64.6071C21.7309 64.9334 21.3619 65.107 21.0102 65.019C14.3075 63.3418 12.1627 54.8813 17.2584 50.214Z" fill="#9CDD05"/>
<path d="M19.4222 51.2846C19.0369 50.8313 18.6353 50.4512 18.2272 50.1577C17.9328 49.9462 17.5256 49.9691 17.2583 50.214C12.1633 54.8806 14.3064 63.3416 21.0099 65.019C21.3616 65.107 21.7305 64.9334 21.8886 64.6071C21.9522 64.4757 22.0106 64.3365 22.0664 64.1934C17.4122 61.6215 16.141 55.5005 19.4222 51.2846Z" fill="#94C609"/>
<path d="M52.7539 33.1742C53.1242 32.6367 52.9884 31.9009 52.4509 31.5306C51.9134 31.1604 51.1775 31.2961 50.8073 31.8336C47.7615 36.2561 44.0117 41.2204 39.5344 46.3418L39.1372 41.5176C39.0836 40.8672 38.5122 40.3831 37.8625 40.4369C37.212 40.4904 36.7281 41.0611 36.7817 41.7115L37.3631 48.7734C26.9025 60.2417 14.6184 70.2258 0.633273 77.5579C0.0553044 77.8611 -0.167821 78.5754 0.135304 79.1534C0.346554 79.5564 0.757648 79.7868 1.18296 79.7868C1.3678 79.7868 1.55562 79.7433 1.73062 79.6514C11.7056 74.4217 21.2281 67.6261 30.0917 59.4203C31.0122 59.1029 35.1151 57.8226 40.8215 58.0423C41.4709 58.0684 42.023 57.5595 42.0481 56.907C42.0733 56.2548 41.565 55.7056 40.9126 55.6806C37.9942 55.5679 35.4714 55.8197 33.5089 56.155C40.5762 49.1853 47.0509 41.4548 52.7539 33.1742Z" fill="#83AA2E"/>
<path d="M51.4969 64.6431C56.193 64.9285 60.4325 62.5473 62.7458 58.8082C63.0173 58.3692 62.9416 57.7934 62.5673 57.4378C60.5298 55.5012 56.6642 54.051 52.1572 53.7771C47.6502 53.5032 43.6373 54.4746 41.3803 56.1501C40.9658 56.4578 40.8208 57.0201 41.0372 57.4889C42.8809 61.4806 46.8008 64.3576 51.4969 64.6431Z" fill="#9CDD05"/>
<path d="M44.1887 57.4888C43.9723 57.0202 44.1173 56.4578 44.5319 56.15C46.2611 54.8663 49.0216 53.9967 52.2445 53.783C52.2153 53.7811 52.1864 53.7788 52.1572 53.7769C47.6502 53.503 43.6373 54.4744 41.3803 56.15C40.9658 56.4577 40.8208 57.02 41.0372 57.4888C42.8808 61.4805 46.8006 64.3575 51.4967 64.643C52.2878 64.6911 53.0655 64.6617 53.8236 64.5647C49.4961 64.0127 45.9233 61.2444 44.1887 57.4888Z" fill="#94C609"/>
<path d="M57.9183 36.2413C56.5145 35.8646 55.1872 35.126 54.0877 34.0218C53.2931 33.224 52.7217 32.306 52.3466 31.3277C51.3083 31.4687 50.2288 31.4084 49.1473 31.0948C47.6508 30.6607 46.3653 29.8512 45.3608 28.801C43.452 28.9588 41.8278 29.5187 40.8516 30.3076C40.6303 30.4865 40.5642 30.7996 40.6955 31.0532C41.8137 33.2127 44.0514 34.711 46.6534 34.7634C48.4578 34.7996 50.108 34.1329 51.3458 33.0168C50.9613 34.6385 51.1692 36.4062 52.0678 37.9713C53.3636 40.2284 55.7527 41.4715 58.1838 41.4149C58.4691 41.4084 58.7122 41.1999 58.7627 40.9199C58.9858 39.6846 58.6966 37.9912 57.9183 36.2413Z" fill="#9CDD05"/>
<path d="M45.3327 33.2888C45.2014 33.0354 45.2675 32.7221 45.4887 32.5432C46.3347 31.8596 47.6673 31.3485 49.2497 31.1215C49.2155 31.1121 49.1814 31.1046 49.1473 31.0948C47.6508 30.6607 46.3653 29.8512 45.3608 28.801C43.452 28.9588 41.8278 29.5187 40.8516 30.3076C40.6303 30.4865 40.5642 30.7996 40.6955 31.0532C41.7695 33.1273 43.8772 34.5877 46.3477 34.7467C45.9495 34.3081 45.607 33.8187 45.3327 33.2888Z" fill="#94C609"/>
<path d="M79.4081 15.6012C78.9916 14.8854 75.1387 8.59448 68.2272 8.06901C67.5603 8.03417 66.8866 8.04339 66.2247 8.09652L66.0453 8.11089L66.1189 8.27511C67.2134 10.7201 67.5255 13.1887 67.2292 15.8231L67.3663 15.8293C69.2072 15.9134 71.0661 16.3782 72.8916 17.2107L72.9489 17.237L73.0044 17.2076C74.6983 16.3126 76.5114 16.1478 78.5477 16.7037C79.2073 16.884 79.7495 16.1873 79.4081 15.6012Z" fill="#F37D79"/>
<path d="M70.6994 8.52198C69.9244 8.29433 69.1005 8.13542 68.2271 8.06901C67.5602 8.03417 66.8864 8.04339 66.2246 8.09652L66.0452 8.11089L66.1188 8.27511C67.2133 10.7201 67.5253 13.1887 67.2291 15.8231L67.3661 15.8293C68.8246 15.8959 70.2942 16.2054 71.7497 16.7435C72.0375 13.8831 71.685 11.1234 70.6994 8.52198Z" fill="#D86666"/>
<path d="M65.4128 6.40007C61.6331 0.592418 54.265 0.23523 53.4374 0.213668C52.7592 0.195855 52.4089 1.00601 52.8838 1.49804C54.3494 3.01695 55.0758 4.68648 55.1044 6.60195L55.1052 6.66476L55.1558 6.70257C57.2866 8.29539 58.8611 10.2273 59.8346 12.4418C60.4905 14.0357 60.8299 15.4837 61.0135 17.0373L61.1691 16.9744C62.5694 16.4093 64.0636 16.0357 65.6074 15.8643C66.1836 15.814 66.7763 15.8023 67.3689 15.8294L67.488 15.8349C67.8716 12.4216 67.2142 9.31617 65.4128 6.40007Z" fill="#F37D79"/>
<path d="M64.1419 16.0932C64.4408 12.3252 63.5814 8.77554 61.5774 5.53132C60.0778 3.22726 58.1075 1.64101 56.106 0.544605C54.7344 0.267261 53.7156 0.221012 53.4374 0.213668C52.7592 0.195855 52.4089 1.00601 52.8838 1.49804C54.3494 3.01695 55.0758 4.68648 55.1044 6.60195L55.1052 6.66476L55.1558 6.70257C57.2866 8.29539 58.8611 10.2273 59.8345 12.4418C60.4774 14.0038 60.8267 15.4585 61.0089 16.9991C61.0619 16.9912 61.1145 16.9827 61.1677 16.9751L61.1691 16.9746C62.1211 16.5904 63.117 16.297 64.1419 16.0932Z" fill="#D86666"/>
<path d="M53.7188 22.9181C55.7528 20.1484 58.2594 18.1488 61.1691 16.9745L61.2591 16.9383C61.0777 15.3981 60.7138 13.9078 60.0699 12.3433C56.8364 4.98642 48.4578 3.19063 47.5131 3.01032C46.7549 2.86548 46.2147 3.70892 46.6555 4.34563C50.02 9.21267 47.8891 13.6242 44.3691 18.4095L44.3802 18.4141C41.7313 22.5542 43.1516 27.9824 47.2728 30.4242C47.8872 30.7883 48.557 31.0816 49.2738 31.2894C50.3295 31.5955 51.4225 31.6752 52.5217 31.5259L52.6806 31.5044L52.6233 31.3545C51.6136 28.7214 52.0438 25.4102 53.7188 22.9181Z" fill="#F37D79"/>
<path d="M49.0484 20.5785L49.0373 20.574C52.6044 15.669 55.0681 10.9232 51.7188 5.84336C51.5178 5.53898 51.5208 5.15289 51.7266 4.8357C51.8091 4.70852 51.9159 4.60883 52.0364 4.53758C49.8008 3.48617 47.9306 3.08977 47.5131 3.01008C46.7549 2.86523 46.2147 3.70867 46.6555 4.34539C50.02 9.21242 47.8891 13.624 44.3691 18.4093L44.3802 18.4138C41.7313 22.554 43.1516 27.9821 47.2728 30.424C47.8872 30.788 48.557 31.0813 49.2738 31.2891C49.4189 31.3312 49.5648 31.368 49.7114 31.4016C47.143 28.4873 46.8236 24.0702 49.0484 20.5785Z" fill="#D86666"/>
<path d="M79.8009 22.1406C79.1889 21.3989 73.59 14.9124 65.5808 15.6106C62.1958 15.9864 57.3537 17.5337 53.5062 22.7756C51.4137 25.8884 50.9289 30.9431 54.1519 34.1796C54.6786 34.7085 55.2573 35.1551 55.8718 35.5192C59.9851 37.9562 65.4322 36.6068 67.7951 32.2874L67.8072 32.2971C70.1989 26.9223 73.2698 22.9326 79.0415 23.5343C79.8128 23.6149 80.2917 22.7354 79.8009 22.1406Z" fill="#F37D79"/>
<path d="M57.9536 25.4106C62.3136 19.4704 69.7203 16.387 76.8823 19.357C74.3711 17.3862 70.4166 15.1892 65.5809 15.6106C62.1959 15.9863 57.3539 17.5337 53.5064 22.7756C51.4139 25.8884 50.9291 30.9431 54.152 34.1796C54.6788 34.7085 55.2575 35.1551 55.872 35.5192C56.6353 35.9713 57.4541 36.2948 58.2963 36.4923C55.41 33.2504 55.9292 28.4218 57.9536 25.4106Z" fill="#D86666"/>
</g>
<defs>
<clipPath id="clip0">
<rect width="80" height="80" fill="white"/>
</clipPath>
</defs>
</svg>
