<svg width="216" height="373" viewBox="0 0 216 373" fill="none" xmlns="http://www.w3.org/2000/svg">
<g opacity="0.5" clip-path="url(#clip0)">
<path d="M25.7415 373C25.7415 373 22.2718 131.375 39.9097 27.2009" stroke="#3E5335" stroke-width="1.2191" stroke-miterlimit="10"/>
<path d="M26.8981 214.135C26.8981 214.135 108.148 229.472 199.808 138.898" stroke="#3E5335" stroke-width="1.2191" stroke-miterlimit="10"/>
<path d="M26.8981 214.135C26.8981 214.135 -104.374 199.956 -109.29 87.1007" stroke="#3E5335" stroke-width="1.2191" stroke-miterlimit="10"/>
<path d="M113.353 199.088C113.353 199.088 108.148 138.898 136.485 113.144" stroke="#3E5335" stroke-width="1.2191" stroke-miterlimit="10"/>
<path d="M72.8724 211.82C72.8724 211.82 120.003 240.179 181.013 214.135" stroke="#3E5335" stroke-width="1.2191" stroke-miterlimit="10"/>
<path d="M30.657 120.089C30.657 120.089 57.5476 109.382 77.4987 56.7168" stroke="#3E5335" stroke-width="1.2191" stroke-miterlimit="10"/>
<path d="M32.681 87.101C32.681 87.101 -2.30573 78.9986 -8.66696 35.3035" stroke="#3E5335" stroke-width="1.2191" stroke-miterlimit="10"/>
<path d="M26.8981 214.135C26.8981 214.135 86.7514 160.022 102.654 88.2583" stroke="#3E5335" stroke-width="1.2191" stroke-miterlimit="10"/>
<path d="M41.3554 199.088C41.3554 199.088 72.005 195.615 82.1251 174.202" stroke="#3E5335" stroke-width="1.2191" stroke-miterlimit="10"/>
<path d="M72.8724 157.708C72.8724 157.708 56.391 153.656 54.0779 136.005" stroke="#3E5335" stroke-width="1.2191" stroke-miterlimit="10"/>
<path d="M-34.401 63.3723C-41.3405 81.8921 -19.0762 109.961 5.50126 136.005C30.0787 162.048 25.4524 215.003 25.4524 215.003C25.4524 215.003 -0.281685 225.999 -27.4615 221.08" stroke="#3E5335" stroke-width="1.2191" stroke-miterlimit="10"/>
<path d="M10.7059 142.371C10.7059 142.371 6.65782 124.14 10.7059 107.936" stroke="#3E5335" stroke-width="1.2191" stroke-miterlimit="10"/>
<path d="M20.2477 162.916C19.9586 162.048 2.03147 162.048 -8.66696 144.975" stroke="#3E5335" stroke-width="1.2191" stroke-miterlimit="10"/>
<path d="M57.8368 17.0729C57.8368 26.6222 50.319 34.1459 40.7771 34.1459C31.2353 34.1459 23.7175 26.6222 23.7175 17.0729C23.7175 7.52366 31.2353 0 40.7771 0C50.0298 0 57.8368 7.52366 57.8368 17.0729Z" fill="#F0C3B0"/>
<path d="M96.0041 57.0061C93.1126 65.9767 83.5708 70.896 74.6073 68.0023C65.6437 65.1086 60.7282 55.5593 63.6197 46.5888C66.5112 37.6182 76.053 32.6989 85.0166 35.5926C93.691 38.4864 98.8956 48.0356 96.0041 57.0061Z" fill="#F0C3B0"/>
<path d="M121.738 88.2583C118.847 97.2289 109.305 102.148 100.341 99.2545C91.3778 96.3607 86.4623 86.8115 89.3538 77.841C92.2452 68.8704 101.787 63.9511 110.751 66.8448C119.714 69.7386 124.63 79.2878 121.738 88.2583Z" fill="#F0C3B0"/>
<path d="M152.099 114.88C147.183 122.983 136.485 125.298 128.678 120.379C120.582 115.459 118.268 104.752 123.184 96.9395C128.099 88.837 138.798 86.5221 146.605 91.4414C154.701 96.3607 157.014 107.067 152.099 114.88Z" fill="#F0C3B0"/>
<path d="M213.398 139.477C208.482 147.58 197.784 149.895 189.977 144.975C181.881 140.056 179.568 129.349 184.483 121.536C189.399 113.434 200.097 111.119 207.904 116.038C216 120.957 218.313 131.375 213.398 139.477Z" fill="#F0C3B0"/>
<path d="M196.338 219.633C191.423 227.735 180.724 230.05 172.917 225.131C164.821 220.212 162.508 209.505 167.423 201.692C172.339 193.589 183.037 191.275 190.844 196.194C198.94 201.113 201.254 211.82 196.338 219.633Z" fill="#F0C3B0"/>
<path d="M105.546 178.542C100.63 186.645 89.9321 188.96 82.1251 184.04C74.029 179.121 71.7158 168.414 76.6313 160.601C81.5468 152.499 92.2452 150.184 100.052 155.103C108.148 160.023 110.461 170.44 105.546 178.542Z" fill="#F0C3B0"/>
<path d="M68.5352 131.085C70.2701 140.345 63.9089 149.316 54.6562 150.763C45.4035 152.499 36.4399 146.133 34.9942 136.873C33.2593 127.613 39.6205 118.642 48.8732 117.195C58.1259 115.749 66.8003 121.825 68.5352 131.085Z" fill="#F0C3B0"/>
<path d="M7.2361 36.4609C6.07951 45.7208 -2.30575 52.6657 -11.5584 51.5082C-20.8111 50.3507 -27.7507 41.9589 -26.5941 32.699C-25.4375 23.4392 -17.0522 16.4942 -7.79954 17.6517C1.74231 18.8092 8.39268 27.201 7.2361 36.4609Z" fill="#F0C3B0"/>
<path d="M-1.72742 146.133C-3.4623 155.393 -12.4259 161.469 -21.6785 159.733C-30.9312 157.997 -37.0033 149.026 -35.2684 139.767C-33.5336 130.507 -24.57 124.43 -15.3173 126.166C-6.35377 127.902 0.00746155 136.873 -1.72742 146.133Z" fill="#F0C3B0"/>
<path d="M24.2958 106.489C22.5609 115.749 13.5973 121.825 4.34465 120.089C-4.90805 118.353 -10.9801 109.382 -9.24525 100.123C-7.51037 90.8627 1.45318 84.7859 10.7059 86.5221C19.6694 88.5477 26.0307 97.2289 24.2958 106.489Z" fill="#F0C3B0"/>
</g>
<defs>
<clipPath id="clip0">
<rect width="349" height="373" fill="white" transform="translate(-133)"/>
</clipPath>
</defs>
</svg>
