<svg width="180" height="373" viewBox="0 0 180 373" fill="none" xmlns="http://www.w3.org/2000/svg">
<g opacity="0.5" clip-path="url(#clip0)">
<path d="M158.742 373C158.742 373 155.272 131.375 172.91 27.201" stroke="#3E5335" stroke-width="1.2191" stroke-miterlimit="10"/>
<path d="M159.898 214.135C159.898 214.135 241.148 229.472 332.808 138.898" stroke="#3E5335" stroke-width="1.2191" stroke-miterlimit="10"/>
<path d="M159.898 214.135C159.898 214.135 28.6255 199.956 23.71 87.1008" stroke="#3E5335" stroke-width="1.2191" stroke-miterlimit="10"/>
<path d="M98.599 195.615C98.599 195.615 45.9743 210.663 18.7945 185.777" stroke="#3E5335" stroke-width="1.2191" stroke-miterlimit="10"/>
<path d="M58.6968 120.089C58.6968 120.089 128.959 169.282 123.755 205.743" stroke="#3E5335" stroke-width="1.2191" stroke-miterlimit="10"/>
<path d="M163.657 120.089C163.657 120.089 190.548 109.382 210.499 56.7168" stroke="#3E5335" stroke-width="1.2191" stroke-miterlimit="10"/>
<path d="M165.681 87.101C165.681 87.101 130.694 78.9986 124.333 35.3035" stroke="#3E5335" stroke-width="1.2191" stroke-miterlimit="10"/>
<path d="M159.898 214.135C159.898 214.135 219.751 160.023 235.655 88.2584" stroke="#3E5335" stroke-width="1.2191" stroke-miterlimit="10"/>
<path d="M174.355 199.088C174.355 199.088 205.005 195.615 215.125 174.202" stroke="#3E5335" stroke-width="1.2191" stroke-miterlimit="10"/>
<path d="M98.599 63.3724C91.6595 81.8922 113.924 109.961 138.501 136.005C163.079 162.048 158.452 215.003 158.452 215.003C158.452 215.003 132.718 225.999 105.539 221.08" stroke="#3E5335" stroke-width="1.2191" stroke-miterlimit="10"/>
<path d="M143.706 142.371C143.706 142.371 139.658 124.141 143.706 107.936" stroke="#3E5335" stroke-width="1.2191" stroke-miterlimit="10"/>
<path d="M153.248 162.916C152.959 162.048 135.031 162.048 124.333 144.975" stroke="#3E5335" stroke-width="1.2191" stroke-miterlimit="10"/>
<path d="M190.837 17.0729C190.837 26.6222 183.319 34.1459 173.777 34.1459C164.235 34.1459 156.717 26.6222 156.717 17.0729C156.717 7.52366 164.235 0 173.777 0C183.03 0 190.837 7.52366 190.837 17.0729Z" fill="#F0C3B0"/>
<path d="M201.535 131.085C203.27 140.345 196.909 149.316 187.656 150.763C178.403 152.499 169.44 146.133 167.994 136.873C166.259 127.613 172.621 118.642 181.873 117.196C191.126 115.749 199.8 121.826 201.535 131.085Z" fill="#F0C3B0"/>
<path d="M140.236 36.4609C139.08 45.7208 130.694 52.6657 121.442 51.5082C112.189 50.3507 105.249 41.9589 106.406 32.699C107.563 23.4392 115.948 16.4942 125.2 17.6517C134.742 18.8092 141.393 27.201 140.236 36.4609Z" fill="#F0C3B0"/>
<path d="M107.852 60.7682C107.273 70.0281 99.1773 77.2624 89.6355 76.6836C80.0936 76.1049 73.1541 68.0025 73.7324 58.4532C74.3107 49.1933 82.4068 41.959 91.9486 42.5378C101.49 43.4059 108.43 51.5083 107.852 60.7682Z" fill="#F0C3B0"/>
<path d="M73.7324 114.591C73.1541 123.851 65.058 131.085 55.5162 130.507C46.2635 129.928 39.0348 121.825 39.6131 112.276C40.1914 102.727 48.2875 95.782 57.8293 96.3607C67.3712 96.9394 74.3107 105.042 73.7324 114.591Z" fill="#F0C3B0"/>
<path d="M37.5891 84.2072C37.0108 93.4671 28.9147 100.701 19.3728 100.123C9.831 99.5439 2.89148 91.4415 3.46977 81.8922C4.04807 72.6323 12.1442 65.398 21.686 65.9768C31.2279 66.5555 38.4565 74.9473 37.5891 84.2072Z" fill="#F0C3B0"/>
<path d="M34.1193 183.462C33.541 192.721 25.4449 199.956 15.9031 199.377C6.65038 198.798 -0.578291 190.696 2.49967e-06 181.147C0.578296 171.887 8.6744 164.652 18.2162 165.231C27.7581 165.81 34.6976 173.912 34.1193 183.462Z" fill="#F0C3B0"/>
<path d="M113.346 225.999C111.611 235.259 102.647 241.336 93.3944 239.6C84.1417 237.863 78.0696 228.893 79.8045 219.633C81.5394 210.373 90.5029 204.296 99.7556 206.033C108.719 207.769 115.08 216.739 113.346 225.999Z" fill="#F0C3B0"/>
<path d="M131.273 146.133C129.538 155.393 120.574 161.469 111.321 159.733C102.069 157.997 95.9967 149.026 97.7316 139.766C99.4665 130.507 108.43 124.43 117.683 126.166C126.646 127.902 133.007 136.873 131.273 146.133Z" fill="#F0C3B0"/>
<path d="M157.296 106.489C155.561 115.749 146.597 121.826 137.345 120.089C128.092 118.353 122.02 109.383 123.755 100.123C125.49 90.8628 134.453 84.786 143.706 86.5222C152.669 88.5478 159.031 97.2289 157.296 106.489Z" fill="#F0C3B0"/>
</g>
<defs>
<clipPath id="clip0">
<rect width="349" height="373" fill="white"/>
</clipPath>
</defs>
</svg>
